<svg width="56" height="56" viewBox="0 0 56 56" fill="none" xmlns="http://www.w3.org/2000/svg">
<circle cx="28" cy="28" r="27.5" fill="#333333" stroke="#333333"/>
<path d="M28.4453 16.5385C30.1094 16.5385 32.1953 15.4094 33.4375 13.904C34.5625 12.5397 35.3828 10.6345 35.3828 8.72918C35.3828 8.47044 35.3594 8.2117 35.3125 8C33.4609 8.07057 31.2344 9.24666 29.8984 10.8226C28.8438 12.0223 27.8828 13.904 27.8828 15.8328C27.8828 16.1151 27.9297 16.3973 27.9531 16.4914C28.0703 16.5149 28.2578 16.5385 28.4453 16.5385ZM22.5859 45C24.8594 45 25.8672 43.4711 28.7031 43.4711C31.5859 43.4711 32.2187 44.953 34.75 44.953C37.2344 44.953 38.8984 42.6478 40.4687 40.3897C42.2266 37.8023 42.9531 35.2619 43 35.1443C42.8359 35.0973 38.0781 33.1449 38.0781 27.6643C38.0781 22.9129 41.8281 20.7724 42.0391 20.6078C39.5547 17.0324 35.7812 16.9383 34.75 16.9383C31.9609 16.9383 29.6875 18.6319 28.2578 18.6319C26.7109 18.6319 24.6719 17.0324 22.2578 17.0324C17.6641 17.0324 13 20.843 13 28.0407C13 32.5098 14.7344 37.2378 16.8672 40.2956C18.6953 42.883 20.2891 45 22.5859 45Z" fill="white"/>
</svg>
