<svg width="24" height="24" viewBox="0 0 24 24" fill="none" xmlns="http://www.w3.org/2000/svg">
<path d="M5.92827 7.97062C6.09393 6.60404 6.805 5.34133 7.92536 4.42421C9.04572 3.5071 10.4967 3 12.0004 3C13.5042 3 14.9551 3.5071 16.0755 4.42421C17.1958 5.34133 17.9069 6.60404 18.0726 7.97062L18.3482 10.2366L18.3547 10.2936C18.4959 11.4176 18.8963 12.5015 19.5293 13.4736L19.5622 13.5236L20.1932 14.4866C20.7674 15.3606 21.0539 15.7976 20.9916 16.1566C20.9504 16.3949 20.8164 16.6116 20.6143 16.7666C20.3091 17.0006 19.7514 17.0006 18.6369 17.0006H5.36393C4.24837 17.0006 3.69059 17.0006 3.38655 16.7676C3.18378 16.6125 3.04935 16.3954 3.00813 16.1566C2.94689 15.7976 3.23343 15.3606 3.80652 14.4866L4.43977 13.5226L4.47258 13.4726C5.10512 12.5007 5.50509 11.4172 5.6461 10.2936L5.65266 10.2366L5.92827 7.97062Z" stroke="#333333" stroke-width="2"/>
<path d="M7.62549 17C7.62549 18.0609 8.0864 19.0783 8.90682 19.8284C9.72724 20.5786 10.84 21 12.0002 21C13.1605 21 14.2732 20.5786 15.0936 19.8284C15.9141 19.0783 16.375 18.0609 16.375 17" stroke="#333333" stroke-width="2" stroke-linecap="round"/>
<circle cx="21" cy="3" r="2" fill="#FF534A"/>
</svg>
