<svg width="48" height="48" viewBox="0 0 48 48" fill="none" xmlns="http://www.w3.org/2000/svg">
<circle cx="24" cy="24" r="23" fill="#D9D9D9" stroke="white" stroke-width="2"/>
<path d="M33 20.5385V21M33 21V32C33 32.5523 32.5523 33 32 33H16C15.4477 33 15 32.5523 15 32V20.5385V19.2291C15 18.6768 15.4477 18.2291 16 18.2291H19.2105C19.7628 18.2291 20.2105 17.7814 20.2105 17.2291V16C20.2105 15.4477 20.6582 15 21.2105 15H26.7895C27.3418 15 27.7895 15.4477 27.7895 16V17.2291C27.7895 17.7814 28.2372 18.2291 28.7895 18.2291H32C32.5523 18.2291 33 18.6768 33 19.2291V21Z" stroke="#333333" stroke-width="2"/>
<circle cx="24" cy="25" r="4" stroke="#333333" stroke-width="2"/>
</svg>
