<svg width="24" height="24" viewBox="0 0 24 24" fill="none" xmlns="http://www.w3.org/2000/svg">
<path d="M12 19C10.4178 19 8.87104 18.5308 7.55544 17.6518C6.23985 16.7727 5.21447 15.5233 4.60897 14.0615C4.00347 12.5997 3.84504 10.9911 4.15372 9.43928C4.4624 7.88743 5.22433 6.46197 6.34315 5.34315C7.46197 4.22433 8.88743 3.4624 10.4393 3.15372C11.9911 2.84504 13.5997 3.00347 15.0615 3.60897C16.5233 4.21447 17.7727 5.23985 18.6518 6.55544C19.5308 7.87103 20 9.41775 20 11C20 12.3227 19.68 13.5698 19.1111 14.6684L20 19L15.6684 18.1111C14.5698 18.68 13.3218 19 12 19Z" stroke="#333333" stroke-width="2" stroke-linecap="round" stroke-linejoin="round"/>
</svg>
