<svg width="24" height="24" viewBox="0 0 24 24" fill="none" xmlns="http://www.w3.org/2000/svg">
<rect width="24" height="24" fill="white"/>
<path d="M20.6421 11.4109C20.8724 11.7099 21 12.0984 21 12.5C21 12.903 20.8724 13.2901 20.6421 13.5891C19.1856 15.425 15.8702 19 12 19C8.12982 19 4.81448 15.425 3.35795 13.5891C3.12299 13.2791 2.99673 12.8949 3.00006 12.5C3.00006 12.0984 3.12768 11.7099 3.35795 11.4109C4.81448 9.575 8.12982 6 12 6C15.8702 6 19.1856 9.575 20.6421 11.4109Z" stroke="#828282" stroke-width="2" stroke-linecap="round" stroke-linejoin="round"/>
<path d="M12 15C12.7956 15 13.5587 14.6839 14.1213 14.1213C14.6839 13.5587 15 12.7956 15 12C15 11.2044 14.6839 10.4413 14.1213 9.87868C13.5587 9.31607 12.7956 9 12 9C11.2044 9 10.4413 9.31607 9.87868 9.87868C9.31607 10.4413 9 11.2044 9 12C9 12.7956 9.31607 13.5587 9.87868 14.1213C10.4413 14.6839 11.2044 15 12 15Z" stroke="#828282" stroke-width="2" stroke-linecap="round" stroke-linejoin="round"/>
</svg>
