<svg width="32" height="32" viewBox="0 0 32 32" fill="none" xmlns="http://www.w3.org/2000/svg">
<circle cx="16" cy="16" r="16" fill="#FCEC5B"/>
<circle cx="10.0556" cy="14.6278" r="3.65714" fill="#404040"/>
<path d="M10.0559 12.9651C10.0559 13.8832 8.88465 14.656 8.15018 14.656C7.41572 14.656 6.82031 14.2442 6.82031 13.3261C6.82031 12.408 7.99153 11.3027 8.72599 11.3027C9.46046 11.3027 10.145 11.6638 10.0559 12.9651Z" fill="white"/>
<circle cx="12.3837" cy="15.6259" r="0.664935" fill="white"/>
<path d="M13.0469 16.6215C13.0469 16.8052 12.0495 18.2846 10.0548 18.2839C8.0599 18.2842 7.0625 16.8055 7.0625 16.6219C7.0625 16.6219 8.06969 16.9545 9.72224 16.9545C11.3748 16.9545 13.0469 16.4379 13.0469 16.6215Z" fill="#71ADE7"/>
<circle cx="21.9423" cy="14.6278" r="3.65714" fill="#404040"/>
<path d="M21.9426 12.9651C21.9426 13.8832 20.7714 14.656 20.0369 14.656C19.3024 14.656 18.707 14.2442 18.707 13.3261C18.707 12.408 19.8782 11.3027 20.6127 11.3027C21.3472 11.3027 22.0317 11.6638 21.9426 12.9651Z" fill="white"/>
<circle cx="24.2704" cy="15.6259" r="0.664935" fill="white"/>
<path d="M24.9336 16.6215C24.9336 16.8052 23.9362 18.2846 21.9415 18.2839C19.9466 18.2842 18.9492 16.8055 18.9492 16.6219C18.9492 16.6219 19.9564 16.9545 21.609 16.9545C23.2615 16.9545 24.9336 16.4379 24.9336 16.6215Z" fill="#71ADE7"/>
<rect x="12.3436" y="20.5722" width="7.31429" height="2.74286" rx="1.37143" fill="white" stroke="#404040" stroke-width="0.914286"/>
</svg>
