<svg width="32" height="32" viewBox="0 0 32 32" fill="none" xmlns="http://www.w3.org/2000/svg">
<circle cx="16" cy="16" r="16" fill="#FCEC5B"/>
<ellipse cx="7.99992" cy="17.3335" rx="2.66667" ry="2.22222" fill="#FFBABA"/>
<ellipse cx="23.9999" cy="17.3335" rx="2.66667" ry="2.22222" fill="#FFBABA"/>
<path d="M18.1497 17.7773H13.8501C13.1973 17.7773 12.784 18.4497 13.138 18.9982C13.8021 20.0271 14.8678 21.3329 15.9999 21.3329C17.132 21.3329 18.1977 20.0271 18.8618 18.9982C19.2158 18.4497 18.8025 17.7773 18.1497 17.7773Z" stroke="#808080" stroke-width="0.888889" stroke-linecap="round"/>
<path d="M8 10.668L11.7494 12.0566C12.523 12.3431 12.523 13.4372 11.7494 13.7237L8 15.1124" stroke="#808080" stroke-width="0.888889" stroke-linecap="round"/>
<path d="M24 10.668L20.2506 12.0566C19.477 12.3431 19.477 13.4372 20.2506 13.7237L24 15.1124" stroke="#808080" stroke-width="0.888889" stroke-linecap="round"/>
</svg>
