<svg width="32" height="32" viewBox="0 0 32 32" fill="none" xmlns="http://www.w3.org/2000/svg">
<circle cx="16" cy="16" r="16" fill="#FCEC5B"/>
<path d="M16.5944 13.6878C16.5944 16.2685 19.1751 19.3735 24.3364 18.8574C27.757 18.8574 27.9156 14.2801 29.4976 11.1096C30.53 9.04078 24.8524 9.55902 21.2398 10.0884C16.4235 10.7942 16.5944 11.3435 16.5944 13.6878Z" fill="#5D5D5D"/>
<path d="M15.0893 13.6538C14.6926 16.2038 12.5086 19.3395 7.34728 18.8234C3.92665 18.8234 3.76809 14.2462 2.18602 11.0757C1.15366 9.00679 6.82753 9.55086 10.4438 10.0544C14.4496 10.6122 15.4819 11.1296 15.0893 13.6538Z" fill="#5D5D5D"/>
<path d="M20.1255 10.6094C15.4803 12.1578 14.4481 11.1255 10.8352 10.6094L10.6719 14.7255H14.5113C15.4954 12.1448 16.2711 12.661 17.0059 14.7255L20.6448 14.8674L20.1255 10.6094Z" fill="#5D5D5D" stroke="#5D5D5D" stroke-width="0.441705" stroke-linecap="round"/>
<path d="M12.4453 20.4453C15.6198 24.4484 18.7533 21.0825 19.112 20.4453" stroke="#404040" stroke-width="0.883409" stroke-linecap="round"/>
</svg>
