<svg width="32" height="32" viewBox="0 0 32 32" fill="none" xmlns="http://www.w3.org/2000/svg">
<circle cx="16" cy="16" r="16" fill="#FCEC5B"/>
<circle cx="10.057" cy="14.6278" r="3.65714" fill="#666666"/>
<path d="M10.0571 12.9651C10.0571 13.8832 8.88587 14.656 8.1514 14.656C7.41694 14.656 6.82153 14.2442 6.82153 13.3261C6.82153 12.408 7.99275 11.3027 8.72721 11.3027C9.46168 11.3027 10.1462 11.6638 10.0571 12.9651Z" fill="white"/>
<circle cx="12.3844" cy="15.6259" r="0.664935" fill="white"/>
<path d="M13.0494 16.6215C13.0494 16.8052 12.052 18.2846 10.0572 18.2839C8.06234 18.2842 7.06494 16.8055 7.06494 16.6219C7.06494 16.6219 8.07213 16.9545 9.72468 16.9545C11.3772 16.9545 13.0494 16.4379 13.0494 16.6215Z" fill="#71ADE7"/>
<circle cx="21.9428" cy="14.6278" r="3.65714" fill="#666666"/>
<path d="M21.9428 12.9651C21.9428 13.8832 20.7716 14.656 20.0371 14.656C19.3027 14.656 18.7073 14.2442 18.7073 13.3261C18.7073 12.408 19.8785 11.3027 20.613 11.3027C21.3474 11.3027 22.032 11.6638 21.9428 12.9651Z" fill="white"/>
<circle cx="24.2702" cy="15.6259" r="0.664935" fill="white"/>
<path d="M24.9351 16.6215C24.9351 16.8052 23.9377 18.2846 21.943 18.2839C19.9481 18.2842 18.9507 16.8055 18.9507 16.6219C18.9507 16.6219 19.9579 16.9545 21.6104 16.9545C23.263 16.9545 24.9351 16.4379 24.9351 16.6215Z" fill="#71ADE7"/>
<rect x="12.3429" y="20.5722" width="7.31429" height="2.74286" rx="1.37143" stroke="#808080" stroke-width="0.914286"/>
</svg>
