<svg width="32" height="32" viewBox="0 0 32 32" fill="none" xmlns="http://www.w3.org/2000/svg">
<circle cx="16" cy="16" r="16" fill="#FCEC5B"/>
<path d="M16.5956 13.6878C16.5956 16.2685 19.1763 19.3735 24.3376 18.8574C27.7582 18.8574 27.9168 14.2801 29.4989 11.1096C30.5312 9.04078 24.8537 9.55902 21.2411 10.0884C16.4248 10.7942 16.5956 11.3435 16.5956 13.6878Z" fill="#808080"/>
<path d="M15.0912 13.6538C14.6946 16.2038 12.5105 19.3395 7.34923 18.8234C3.9286 18.8234 3.77005 14.2462 2.18798 11.0757C1.15562 9.00679 6.82948 9.55086 10.4458 10.0544C14.4515 10.6122 15.4839 11.1296 15.0912 13.6538Z" fill="#808080"/>
<path d="M20.1292 10.6094C15.484 12.1578 14.4517 11.1255 10.8388 10.6094L10.6755 14.7255H14.515C15.4991 12.1448 16.2747 12.661 17.0096 14.7255L20.6484 14.8674L20.1292 10.6094Z" fill="#808080" stroke="#808080" stroke-width="0.441705" stroke-linecap="round"/>
<path d="M12.4443 20.4453C15.6188 24.4484 18.7523 21.0825 19.111 20.4453" stroke="#808080" stroke-width="0.883409" stroke-linecap="round"/>
</svg>
