<svg width="24" height="24" viewBox="0 0 24 24" fill="none" xmlns="http://www.w3.org/2000/svg">
<path d="M15.0001 7.49994C15.0001 9.43294 13.4331 10.9999 11.5001 10.9999C9.56707 10.9999 8.00007 9.43294 8.00007 7.49994C8.00007 5.56695 9.56707 3.99994 11.5001 3.99994C13.4331 3.99994 15.0001 5.56695 15.0001 7.49994Z" stroke="currentColor" stroke-width="2"/>
<path d="M17 11L18.3586 12.3586C18.4367 12.4367 18.5633 12.4367 18.6414 12.3586L21 10" stroke="currentColor" stroke-width="2" stroke-linecap="round"/>
<path fill-rule="evenodd" clip-rule="evenodd" d="M18.0003 20.1323C18.0003 19.9941 18.0007 19.8615 18.001 19.7339V19.7339C18.0031 19.023 18.0047 18.4689 17.9365 17.9818C17.8612 17.4437 17.7143 17.1183 17.4723 16.8761C17.215 16.6187 16.7352 16.3406 15.7681 16.1438C14.8207 15.9509 13.4921 15.8531 11.6278 15.8792C11.5812 15.885 11.5338 15.8876 11.4855 15.8869C9.56279 15.8553 8.20029 15.9531 7.2341 16.1497C6.267 16.3466 5.78719 16.6247 5.52998 16.882C5.28789 17.1243 5.141 17.4497 5.06571 17.9878C4.99754 18.4749 4.99914 19.029 5.00121 19.7399V19.74C5.00158 19.8675 5.00197 20.0001 5.00196 20.1383C5.00196 20.6906 4.55424 21.1383 4.00196 21.1383C3.44967 21.1383 3.00196 20.6906 3.00196 20.1383C3.00196 20.0184 3.00148 19.8974 3.00099 19.7757L3.00099 19.7757C2.99817 19.0743 2.99527 18.3518 3.08501 17.7106C3.19541 16.9217 3.45887 16.1251 4.11535 15.4682C4.75669 14.8265 5.66367 14.4284 6.83514 14.1899C7.98527 13.9558 9.47752 13.8583 11.4059 13.8854C11.4316 13.883 11.4576 13.8816 11.4838 13.8811C13.4668 13.8485 14.9947 13.9453 16.1671 14.1839C17.3386 14.4224 18.2455 14.8205 18.8869 15.4623C19.5434 16.1191 19.8068 16.9157 19.9172 17.7046C20.007 18.3458 20.0041 19.0683 20.0012 19.7697V19.7702C20.0008 19.8917 20.0003 20.0126 20.0003 20.1323C20.0003 20.6846 19.5526 21.1323 19.0003 21.1323C18.448 21.1323 18.0003 20.6846 18.0003 20.1323Z" fill="currentColor"/>
</svg>
