<svg width="56" height="56" viewBox="0 0 56 56" fill="none" xmlns="http://www.w3.org/2000/svg">
<circle cx="28" cy="28" r="26" fill="#333333" stroke="#333333" stroke-width="4"/>
<path d="M39.8002 20.751C39.8002 25.596 34.7001 29.7246 28.1282 29.7246C21.5563 29.7246 16.4562 25.596 16.4562 20.751C16.4562 18.2653 17.3386 16.2266 19.1873 14.7943C21.0555 13.3467 23.973 12.4701 28.1282 12.4704C32.7657 12.4707 35.6685 13.3529 37.4088 14.7854C39.1256 16.1986 39.8002 18.224 39.8002 20.751Z" fill="white" stroke="white" stroke-width="1.01496"/>
<path d="M21.1827 35.4941C23.1518 36.697 25.771 35.3759 25.9085 34.6921L26.3023 37.4989H23.1518C22.3976 37.4989 20.3951 36.6877 19.6075 35.0931C18.935 33.7316 16.8508 31.9845 16.8508 31.5743C16.8508 31.246 17.8135 31.902 18.0885 32.1755C18.6399 32.7238 20.0013 34.6921 21.1827 35.4941Z" fill="white" stroke="white" stroke-width="0.859223"/>
<path d="M31.6797 29.9978C32.5398 31.5647 33.1467 33.8056 33.5399 36.4593C33.6755 38.985 33.595 40.7596 33.3524 42.0033C33.1092 43.2498 32.7132 43.9124 32.2613 44.2793C31.8094 44.6462 31.2301 44.7763 30.4797 44.7981C30.1054 44.809 29.7052 44.7927 29.2707 44.7728C29.2358 44.7712 29.2007 44.7695 29.1653 44.7679C28.7658 44.7493 28.3406 44.7296 27.904 44.7296C27.748 44.7296 27.5965 44.7307 27.4491 44.7318C26.8505 44.7363 26.3199 44.7402 25.8313 44.6662C25.2441 44.5772 24.772 44.3809 24.3943 43.9611C24.007 43.5307 23.676 42.8176 23.4814 41.6075C23.2881 40.4062 23.2352 38.7533 23.3692 36.4807C23.9736 34.0218 24.5788 31.7766 25.3957 30.1444C26.2199 28.4978 27.1844 27.6171 28.4553 27.6171C29.7561 27.6171 30.8192 28.4304 31.6797 29.9978Z" fill="white" stroke="white" stroke-width="0.859223"/>
<path d="M32.2227 14.4375L38.7092 18.1498C38.4957 15.3624 38.3398 12.1351 38.3289 11.4779C38.326 11.4771 38.3229 11.4763 38.3196 11.4754C38.2692 11.4625 38.2056 11.4559 38.142 11.4561C38.1115 11.4562 38.085 11.4579 38.0651 11.4599C38.0614 11.4603 38.0581 11.4607 38.0553 11.461C35.4225 12.3959 33.5328 13.0935 32.2835 13.5644C31.9018 13.7083 31.8516 14.2251 32.2227 14.4375Z" fill="white" stroke="white" stroke-width="1.01496"/>
<path d="M25.0481 14.4375L18.5616 18.1498C18.7751 15.3624 18.931 12.1351 18.9419 11.4779C18.9448 11.4771 18.9479 11.4763 18.9511 11.4754C19.0016 11.4625 19.0652 11.4559 19.1288 11.4561C19.1592 11.4562 19.1857 11.4579 19.2057 11.4599C19.2094 11.4603 19.2126 11.4607 19.2155 11.461C21.8482 12.3959 23.738 13.0935 24.9872 13.5644C25.369 13.7083 25.4191 14.2251 25.0481 14.4375Z" fill="white" stroke="white" stroke-width="1.01496"/>
</svg>
