<svg width="56" height="56" viewBox="0 0 56 56" fill="none" xmlns="http://www.w3.org/2000/svg">
<circle cx="28" cy="28" r="27.5" fill="white" stroke="#C8C8C8"/>
<path d="M35.4169 19.004C33.6669 17.2551 32.7293 16.2051 28.4169 16.2051C22.3032 16.2051 17.5669 20.4335 17.5669 28.1561C17.5669 35.9295 22.8041 39.6553 29.0816 39.6553C34.7314 39.6553 37.5426 37.2759 37.6518 32.6271H29.0816V24.6051H46.2669L45.9169 31.6053C45.1848 40.248 39.0711 47.3553 29.0816 47.3553C18.0004 47.3553 9.86694 39.7908 9.86694 28.1561C9.86694 16.2166 17.9908 8.39844 28.4169 8.39844C36.4669 8.85508 39.2669 12.0051 40.6669 13.754L35.4169 19.004Z" fill="black" fill-opacity="0.5"/>
<path d="M35.4169 19.004C33.6669 17.2551 32.7293 16.2051 28.4169 16.2051C22.3032 16.2051 17.5669 20.4335 17.5669 28.1561C17.5669 35.9295 22.8041 39.6553 29.0816 39.6553C34.7314 39.6553 37.5426 37.2759 37.6518 32.6271H29.0816V24.6051H46.2669L45.9169 31.6053C45.1848 40.248 39.0711 47.3553 29.0816 47.3553C18.0004 47.3553 9.86694 39.7908 9.86694 28.1561C9.86694 16.2166 17.9908 8.39844 28.4169 8.39844C36.4669 8.85508 39.2669 12.0051 40.6669 13.754L35.4169 19.004Z" fill="#4385F5"/>
<mask id="mask0_384_5767" style="mask-type:alpha" maskUnits="userSpaceOnUse" x="8" y="2" width="37" height="25">
<path d="M25.6166 2.80127L44.1666 12.9513L34.3666 19.9513L23.8666 26.6013L8.46655 14.7013L25.6166 2.80127Z" fill="#D9D9D9"/>
</mask>
<g mask="url(#mask0_384_5767)">
<path d="M35.4167 19.0059C33.6667 17.257 32.7291 16.207 28.4167 16.207C22.3029 16.207 17.5667 20.4355 17.5667 28.1581C17.5667 35.9314 22.8039 39.6572 29.0814 39.6572C34.7312 39.6572 37.5424 37.2778 37.6516 32.629H29.0814V24.607H46.2667L45.9167 31.6072C45.1846 40.25 39.0708 47.3573 29.0814 47.3573C18.0002 47.3573 9.8667 39.7927 9.8667 28.1581C9.8667 16.2185 17.9906 8.40039 28.4167 8.40039C36.4667 8.85703 39.2667 12.007 40.6667 13.7559L35.4167 19.0059Z" fill="#EB4336"/>
</g>
<mask id="mask1_384_5767" style="mask-type:alpha" maskUnits="userSpaceOnUse" x="0" y="17" width="26" height="28">
<path d="M11.9678 17.1475L25.2678 27.2975L8.11782 44.0975L0.767822 25.1975L11.9678 17.1475Z" fill="#D9D9D9"/>
</mask>
<g mask="url(#mask1_384_5767)">
<path d="M35.4177 19.0045C33.6677 17.2556 32.7301 16.2056 28.4177 16.2056C22.3039 16.2056 17.5677 20.434 17.5677 28.1566C17.5677 35.93 22.8048 39.6558 29.0824 39.6558C34.7321 39.6558 37.5434 37.2764 37.6525 32.6276H29.0824V24.6056H46.2677L45.9177 31.6058C45.1856 40.2485 39.0718 47.3558 29.0824 47.3558C18.0012 47.3558 9.86768 39.7913 9.86768 28.1566C9.86768 16.2171 17.9915 8.39893 28.4177 8.39893C36.4677 8.85557 39.2677 12.0056 40.6677 13.7545L35.4177 19.0045Z" fill="#FCBC05"/>
</g>
<mask id="mask2_384_5767" style="mask-type:alpha" maskUnits="userSpaceOnUse" x="9" y="32" width="37" height="24">
<path d="M17.9172 32.1982L35.0672 37.7982L45.5672 46.8982L23.5172 55.6482L9.16724 38.1482L17.9172 32.1982Z" fill="#D9D9D9"/>
</mask>
<g mask="url(#mask2_384_5767)">
<path d="M35.4165 19.3541C33.6665 17.6052 32.7288 16.5552 28.4165 16.5552C22.3027 16.5552 17.5665 20.7836 17.5665 28.5062C17.5665 36.2796 22.8036 39.5485 29.0811 39.5485C34.7309 39.5485 37.5421 37.626 37.6513 32.9772H29.0811V24.9552H46.2665L45.6018 31.8485C44.8665 40.5985 38.7559 47.5985 28.7665 47.5985C17.6853 47.5985 9.86646 40.1409 9.86646 28.5062C9.86646 16.5667 17.9903 8.74854 28.4165 8.74854C36.4665 9.20518 39.2665 12.3552 40.6665 14.1041L35.4165 19.3541Z" fill="#34A853"/>
</g>
</svg>
