<svg width="24" height="24" viewBox="0 0 24 24" fill="none" xmlns="http://www.w3.org/2000/svg">
<path d="M11.9987 22L2.81062 12.7553C2.19876 12.1325 1.72083 11.3755 1.4098 10.5366C1.09877 9.69765 0.962036 8.79672 1.00904 7.89594C1.05604 6.99517 1.28566 6.11599 1.68205 5.31906C2.07844 4.52212 2.63217 3.82641 3.30504 3.2799C3.97791 2.73339 4.75391 2.3491 5.5795 2.15353C6.40509 1.95797 7.26062 1.95578 8.08708 2.14713C8.91354 2.33848 9.69125 2.71881 10.3666 3.26187C11.0419 3.80494 11.5987 4.49783 11.9987 5.29273C12.3952 4.50284 12.9466 3.81337 13.6154 3.27124C14.2841 2.7291 15.0545 2.34704 15.8741 2.15105C16.6937 1.95505 17.5432 1.94973 18.3649 2.13545C19.1866 2.32117 19.9612 2.69356 20.6358 3.22728C21.3105 3.76101 21.8695 4.44353 22.2747 5.22839C22.6798 6.01325 22.9218 6.88203 22.984 7.77559C23.0461 8.66915 22.9271 9.56652 22.635 10.4066C22.3429 11.2467 21.8846 12.0098 21.2912 12.6439L11.9987 22Z" stroke="currentColor" stroke-width="2" stroke-linecap="round" stroke-linejoin="round"/>
</svg>
