<svg width="24" height="24" viewBox="0 0 24 24" fill="none" xmlns="http://www.w3.org/2000/svg">
<path d="M11.9989 20L4.48142 12.6042C3.9808 12.106 3.58977 11.5004 3.33529 10.8293C3.08081 10.1581 2.96894 9.43738 3.00739 8.71675C3.04585 7.99613 3.23372 7.29279 3.55804 6.65524C3.88236 6.0177 4.33541 5.46112 4.88594 5.02392C5.43647 4.58671 6.07138 4.27928 6.74686 4.12283C7.42235 3.96637 8.12233 3.96463 8.79852 4.11771C9.47471 4.27078 10.111 4.57505 10.6636 5.0095C11.2161 5.44395 11.6717 5.99826 11.9989 6.63418C12.3234 6.00227 12.7745 5.4507 13.3217 5.01699C13.8688 4.58328 14.4991 4.27763 15.1697 4.12084C15.8403 3.96404 16.5354 3.95979 17.2077 4.10836C17.88 4.25693 18.5137 4.55485 19.0657 4.98183C19.6177 5.4088 20.075 5.95482 20.4065 6.58271C20.7381 7.2106 20.936 7.90562 20.9869 8.62047C21.0377 9.33532 20.9404 10.0532 20.7014 10.7253C20.4624 11.3974 20.0874 12.0078 19.6019 12.5151L11.9989 20Z" stroke="currentColor" stroke-width="2" stroke-linecap="round" stroke-linejoin="round"/>
</svg>
