<svg width="24" height="24" viewBox="0 0 24 24" fill="none" xmlns="http://www.w3.org/2000/svg">
<path d="M6.133 20C4.955 20 4 19.1289 4 18.0534V10.2295C4 9.63838 4.295 9.07839 4.8 8.70951L10.667 4.42691C11.0419 4.15098 11.5133 4 12 4C12.4867 4 12.9581 4.15098 13.333 4.42691L19.199 8.70951C19.705 9.07839 20 9.63838 20 10.2295V18.0534C20 19.1289 19.045 20 17.867 20H6.133Z" stroke="#828282" stroke-width="2" stroke-linecap="round" stroke-linejoin="round"/>
<path d="M9.5 19.9999V15.1111C9.5 14.6396 9.71071 14.1875 10.0858 13.8541C10.4609 13.5207 10.9696 13.3334 11.5 13.3334H12.5C13.0304 13.3334 13.5391 13.5207 13.9142 13.8541C14.2893 14.1875 14.5 14.6396 14.5 15.1111V19.9999" stroke="#828282" stroke-width="2" stroke-linecap="round" stroke-linejoin="round"/>
</svg>
