<svg width="24" height="24" viewBox="0 0 24 24" fill="none" xmlns="http://www.w3.org/2000/svg">
<path d="M11.72 7.44C12.1176 7.44 12.44 7.11765 12.44 6.72C12.44 6.32236 12.1176 6 11.72 6C11.3224 6 11 6.32236 11 6.72C11 7.11765 11.3224 7.44 11.72 7.44Z" stroke="#333333" stroke-width="1.5" stroke-linecap="round" stroke-linejoin="round"/>
<path d="M11.72 12.72C12.1176 12.72 12.44 12.3977 12.44 12C12.44 11.6024 12.1176 11.28 11.72 11.28C11.3224 11.28 11 11.6024 11 12C11 12.3977 11.3224 12.72 11.72 12.72Z" stroke="#333333" stroke-width="1.5" stroke-linecap="round" stroke-linejoin="round"/>
<path d="M11.72 18C12.1176 18 12.44 17.6776 12.44 17.28C12.44 16.8824 12.1176 16.56 11.72 16.56C11.3224 16.56 11 16.8824 11 17.28C11 17.6776 11.3224 18 11.72 18Z" stroke="#333333" stroke-width="1.5" stroke-linecap="round" stroke-linejoin="round"/>
</svg>
