<svg width="24" height="24" viewBox="0 0 24 24" fill="none" xmlns="http://www.w3.org/2000/svg">
<path d="M7.44 11.7204C7.44 11.3228 7.11765 11.0004 6.72 11.0004C6.32236 11.0004 6 11.3228 6 11.7204C6 12.1181 6.32236 12.4404 6.72 12.4404C7.11765 12.4404 7.44 12.1181 7.44 11.7204Z" stroke="currentColor" stroke-width="1.5" stroke-linecap="round" stroke-linejoin="round"/>
<path d="M12.72 11.7204C12.72 11.3228 12.3977 11.0004 12 11.0004C11.6024 11.0004 11.28 11.3228 11.28 11.7204C11.28 12.1181 11.6024 12.4404 12 12.4404C12.3977 12.4404 12.72 12.1181 12.72 11.7204Z" stroke="currentColor" stroke-width="1.5" stroke-linecap="round" stroke-linejoin="round"/>
<path d="M18.0001 11.7204C18.0001 11.3228 17.6777 11.0004 17.2801 11.0004C16.8824 11.0004 16.5601 11.3228 16.5601 11.7204C16.5601 12.1181 16.8824 12.4404 17.2801 12.4404C17.6777 12.4404 18.0001 12.1181 18.0001 11.7204Z" stroke="currentColor" stroke-width="1.5" stroke-linecap="round" stroke-linejoin="round"/>
</svg>
