<svg width="24" height="24" viewBox="0 0 24 24" fill="none" xmlns="http://www.w3.org/2000/svg">
<path d="M20 19L16.1396 15.1396M16.1396 15.1396C16.7999 14.4793 17.3237 13.6953 17.6811 12.8326C18.0385 11.9698 18.2224 11.0451 18.2224 10.1112C18.2224 9.17735 18.0385 8.25264 17.6811 7.38987C17.3237 6.5271 16.7999 5.74316 16.1396 5.08283C15.4793 4.42249 14.6953 3.89868 13.8326 3.54131C12.9698 3.18394 12.0451 3 11.1112 3C10.1774 3 9.25264 3.18394 8.38987 3.54131C7.5271 3.89868 6.74316 4.42249 6.08283 5.08283C4.74921 6.41644 4 8.2252 4 10.1112C4 11.9972 4.74921 13.806 6.08283 15.1396C7.41644 16.4732 9.2252 17.2224 11.1112 17.2224C12.9972 17.2224 14.806 16.4732 16.1396 15.1396Z" stroke="#5D5D5D" stroke-width="2" stroke-linecap="round" stroke-linejoin="round"/>
</svg>
