<svg width="30" height="38" viewBox="0 0 30 38" fill="none" xmlns="http://www.w3.org/2000/svg">
<path d="M2.19482 6.47852H28.1948V34.3705C28.1948 35.7459 27.0799 36.8608 25.7045 36.8608H4.68518C3.30979 36.8608 2.19482 35.7459 2.19482 34.3705V6.47852Z" fill="#D9D9D9"/>
<rect y="2.99219" width="30" height="2" rx="1" fill="#D9D9D9"/>
<path d="M12 2.99228C12 1.89198 12.892 1 13.9923 1H15.4865C16.5868 1 17.4788 1.89198 17.4788 2.99228H12Z" fill="#D9D9D9"/>
<path d="M4 32V12H6V32H4Z" fill="#E1E1E1"/>
<path d="M8 32V12H10V32H8Z" fill="#E1E1E1"/>
<path d="M12 32V12H14V32H12Z" fill="#E1E1E1"/>
<path d="M16 32V12H18V32H16Z" fill="#E1E1E1"/>
<path d="M20 32V12H22V32H20Z" fill="#E1E1E1"/>
<path d="M24 32V12H26V32H24Z" fill="#E1E1E1"/>
</svg>
